<svg width="230" height="50" viewBox="0 0 230 50" fill="none" xmlns="http://www.w3.org/2000/svg">
<circle cx="25" cy="25" r="24.6" fill="#F8F8F8" stroke="#212121" stroke-width="0.8"/>
<path d="M20 31C19.7348 31 19.4804 31.1054 19.2929 31.2929C19.1054 31.4804 19 31.7348 19 32C19 32.7956 19.3161 33.5587 19.8787 34.1213C20.4413 34.6839 21.2044 35 22 35H27C27.2652 35 27.5196 34.8946 27.7071 34.7071C27.8946 34.5196 28 34.2652 28 34V32C28 31.7348 27.8946 31.4804 27.7071 31.2929C27.5196 31.1054 27.2652 31 27 31H20ZM20 31L22 23M30 23H21C20.4696 23 19.9609 22.7893 19.5858 22.4142C19.2107 22.0391 19 21.5304 19 21V17C19 16.4696 19.2107 15.9609 19.5858 15.5858C19.9609 15.2107 20.4696 15 21 15H30C30.2652 15 30.5196 15.1054 30.7071 15.2929C30.8946 15.4804 31 15.7348 31 16V22C31 22.2652 30.8946 22.5196 30.7071 22.7071C30.5196 22.8946 30.2652 23 30 23ZM30 23L29.19 26.242C29.136 26.4584 29.0112 26.6506 28.8355 26.788C28.6597 26.9253 28.4431 26.9999 28.22 27H25M31 17H34C34.2652 17 34.5196 17.1054 34.7071 17.2929C34.8946 17.4804 35 17.7348 35 18V20C35 20.2652 34.8946 20.5196 34.7071 20.7071C34.5196 20.8946 34.2652 21 34 21H31M35 19H39M24 31L26 23" stroke="#212121" stroke-linecap="round" stroke-linejoin="round"/>
<circle cx="70" cy="25" r="24.6" fill="#F8F8F8" stroke="#212121" stroke-width="0.8"/>
<path d="M76.5 18.5H63.5V25.5C63.5 26.0304 63.7107 26.5391 64.0858 26.9142C64.4609 27.2893 64.9696 27.5 65.5 27.5H68.5V31C68.5 31.3978 68.658 31.7794 68.9393 32.0607C69.2206 32.342 69.6022 32.5 70 32.5C70.3978 32.5 70.7794 32.342 71.0607 32.0607C71.342 31.7794 71.5 31.3978 71.5 31V27.5H74.5C75.0304 27.5 75.5391 27.2893 75.9142 26.9142C76.2893 26.5391 76.5 26.0304 76.5 25.5V18.5Z" stroke="#212121"/>
<path d="M64 24.5H76M74 19V21M71.5 19V22.5M66 19V20" stroke="#212121" stroke-linecap="round" stroke-linejoin="round"/>
<circle cx="115" cy="25" r="24.6" fill="#F8F8F8" stroke="#212121" stroke-width="0.8"/>
<path d="M116.004 24.5781C115.952 24.4842 115.888 24.3979 115.813 24.3217L114.953 23.4737C114.865 23.3838 114.761 23.3111 114.646 23.2595C114.465 23.1788 114.264 23.1548 114.069 23.1905C113.874 23.2262 113.695 23.3201 113.554 23.4597C113.256 23.7531 112.711 24.2884 111.726 25.2611C109.844 27.1234 106.348 30.2448 104.768 31.5761C104.688 31.6427 104.623 31.7251 104.577 31.8182C104.531 31.9112 104.505 32.0128 104.5 32.1166C104.495 32.2203 104.512 32.3239 104.549 32.4208C104.586 32.5177 104.643 32.6058 104.717 32.6795L106.545 34.5278C106.618 34.6016 106.706 34.6595 106.803 34.6976C106.9 34.7358 107.004 34.7535 107.109 34.7495C107.213 34.7456 107.315 34.7202 107.409 34.6749C107.503 34.6295 107.586 34.5652 107.654 34.4861C109.025 32.875 112.168 29.3767 114.029 27.5378C114.985 26.5975 115.521 26.0575 115.824 25.7593C115.974 25.6064 116.073 25.4099 116.105 25.1978C116.137 24.9858 116.102 24.7689 116.004 24.5781ZM125.426 22.4218L123.818 20.8281C123.794 20.8036 123.764 20.7843 123.732 20.7715C123.7 20.7587 123.665 20.7526 123.631 20.7536C123.596 20.753 123.562 20.7593 123.529 20.7721C123.497 20.7849 123.468 20.8039 123.443 20.8281C123.385 20.8863 123.315 20.9304 123.237 20.9569C123.16 20.9835 123.077 20.9919 122.995 20.9814C122.785 20.9584 122.562 20.8932 122.417 20.7536C122.089 20.432 122.469 19.7992 122.18 19.3942C121.85 18.951 121.488 18.5324 121.098 18.1417C120.767 17.8136 119.466 16.5728 117.275 15.6793C116.576 15.3929 115.828 15.2458 115.072 15.2462C113.837 15.2462 112.887 15.7975 112.541 16.1139C112.265 16.3632 111.978 16.7593 111.978 16.7593C112.144 16.6989 112.313 16.6488 112.485 16.6093C112.843 16.5325 113.211 16.509 113.576 16.5395C114.306 16.6 115.185 16.9422 115.656 17.3125C116.416 17.9218 116.743 18.737 116.794 19.7889C116.831 20.5712 116.08 21.5589 115.367 22.3642C115.304 22.435 115.271 22.5272 115.275 22.6218C115.278 22.7163 115.318 22.8059 115.386 22.8718L116.381 23.867C116.451 23.9355 116.544 23.9743 116.642 23.9752C116.739 23.976 116.833 23.9389 116.904 23.8717C117.557 23.2384 118.361 22.5372 118.817 22.2564C119.273 21.9756 119.641 21.8964 119.818 21.8772C120.165 21.8435 120.514 21.9192 120.816 22.0937C120.869 22.1238 120.918 22.1614 120.961 22.2053C121.263 22.5128 121.245 23.0153 120.937 23.3181L120.843 23.4067C120.819 23.4307 120.8 23.4593 120.786 23.4908C120.773 23.5224 120.766 23.5562 120.766 23.5904C120.766 23.6246 120.773 23.6585 120.786 23.69C120.8 23.7216 120.819 23.7502 120.843 23.7742L122.452 25.3679C122.476 25.3922 122.506 25.4113 122.538 25.4241C122.57 25.4368 122.605 25.4429 122.639 25.442C122.709 25.443 122.776 25.4164 122.827 25.3679L125.426 22.7968C125.474 22.7462 125.501 22.6791 125.501 22.6093C125.501 22.5396 125.474 22.4725 125.426 22.4218Z" stroke="#212121" stroke-linecap="round" stroke-linejoin="round"/>
<circle cx="160" cy="25" r="24.6" fill="#F8F8F8" stroke="#212121" stroke-width="0.8"/>
<path d="M152.249 20.9814C152.269 20.9905 152.319 21.0061 152.421 21.0061L152.456 21.0055C152.458 21.0055 152.485 21.0052 152.487 21.0052L166.677 20.0555C166.729 20.0521 166.906 20.0326 166.936 19.937C166.945 19.9112 166.942 19.8911 166.928 19.8738C166.311 19.4146 165.556 19.0233 164.825 18.6449C162.924 17.6612 160.775 16.549 160.674 13.9089C160.172 13.4842 159.394 12.8503 158.808 12.8503L158.781 12.8512C158.73 12.8583 158.678 12.8659 158.627 12.8804C156.56 13.4868 152.08 19.9552 152.249 20.9814ZM152.421 21.8565C152.045 21.8562 151.758 21.7349 151.567 21.4951C151.296 21.1305 151.422 20.6168 151.541 20.2613C152.295 17.9948 156.336 12.6667 158.392 12.0634C158.5 12.0322 158.599 12.0183 158.685 12.0058C158.697 12.0044 158.709 12.0033 158.721 12.0024C159.672 11.9491 160.657 12.7817 161.3 13.3266L161.333 13.3547C161.342 13.362 161.35 13.3697 161.358 13.3776L161.392 13.4111C161.472 13.491 161.517 13.5996 161.517 13.713C161.517 15.9761 163.312 16.9054 165.212 17.8888C165.984 18.2882 166.782 18.7013 167.459 19.211C167.471 19.2198 167.482 19.2292 167.493 19.2394C167.767 19.4934 167.862 19.8764 167.736 20.2151C167.613 20.6044 167.236 20.8694 166.734 20.9043L152.516 21.8548C152.508 21.8554 152.475 21.856 152.468 21.856L152.421 21.8565ZM159.914 30.9058C161.078 31.7608 162.369 32.7258 163.129 33.2979L165.183 30.6184L159.914 30.9058ZM163.209 34.3156C163.12 34.3156 163.03 34.2879 162.954 34.23C162.135 33.6103 159.957 31.9788 158.453 30.8914C158.307 30.7859 158.243 30.5996 158.294 30.4267C158.344 30.2538 158.498 30.1313 158.677 30.1214L166.058 29.7191C166.22 29.7067 166.378 29.7985 166.456 29.9456C166.533 30.0928 166.517 30.2714 166.416 30.4029L163.544 34.1498C163.461 34.2584 163.336 34.3156 163.209 34.3156ZM176.144 19.5285C176.076 19.5586 176.009 19.5875 175.942 19.6147L176.153 19.5529C176.151 19.5438 176.148 19.5356 176.144 19.5285ZM151.419 31.3628C150.105 31.3628 149.036 32.4364 149.036 33.756C149.036 35.0757 150.105 36.1495 151.419 36.1495C152.738 36.1495 153.812 35.0757 153.812 33.756C153.812 33.0759 153.519 32.4256 153.009 31.972C152.844 31.8252 152.818 31.5763 152.95 31.3991L153.573 30.5602C153.648 30.4596 153.763 30.3972 153.888 30.3899L156.983 30.211C157.074 30.205 157.165 30.2303 157.241 30.2807C158.171 30.8979 162.207 33.9015 163.108 34.5991L163.494 34.5524L167.115 29.8283C167.193 29.7265 167.313 29.6656 167.441 29.6627L167.756 29.6551C167.765 29.6508 167.775 29.6468 167.784 29.6432L168.454 27.7421L170.746 22.3158C170.772 22.2543 170.812 22.1998 170.863 22.1568L171.259 21.8217C171.136 21.9098 171.011 21.9898 170.883 22.0558L170.764 22.1877C170.694 22.322 170.558 22.4085 170.407 22.4147L149.054 23.2771C149.78 24.4859 150.536 25.6768 151.267 26.8309C151.955 27.9161 152.667 29.0382 153.35 30.1688C153.44 30.3165 153.431 30.5041 153.328 30.643L152.783 31.3812C152.669 31.5352 152.466 31.5933 152.288 31.5235C152.018 31.4169 151.725 31.3628 151.419 31.3628ZM151.419 37C149.638 37 148.19 35.5448 148.19 33.756C148.19 31.9675 149.638 30.5123 151.419 30.5123C151.718 30.5123 152.008 30.5509 152.285 30.6274L152.479 30.3661C151.845 29.3257 151.189 28.2909 150.553 27.2879C149.78 26.0678 148.98 24.806 148.217 23.5283L148.209 23.522C148.133 23.4285 147.975 23.234 148.004 22.9661C148.016 22.851 148.069 22.6835 148.251 22.5395C148.321 22.4839 148.407 22.4522 148.496 22.4485L170.177 21.5728L170.31 21.4248C170.348 21.3828 170.394 21.3485 170.445 21.3247C170.719 21.1963 171.035 20.9264 171.34 20.6656C171.68 20.3747 172.031 20.0742 172.399 19.8956C173.026 19.5985 173.636 19.4318 174.226 19.2708C174.83 19.1061 175.4 18.9505 175.983 18.6659C176.088 18.6143 176.21 18.6089 176.319 18.6511C176.9 18.8742 177.132 19.3993 176.926 20.0212C176.882 20.1539 176.776 20.2562 176.643 20.2954L173.177 21.3105L171.486 22.7416L169.243 28.0502L168.495 30.1736C168.439 30.3337 168.293 30.4449 168.124 30.4559L168.107 30.4571C168.053 30.4843 167.992 30.4999 167.928 30.5016L167.663 30.5081L164.057 35.2123C163.987 35.3027 163.885 35.3614 163.772 35.375L163.037 35.4643C162.924 35.4788 162.811 35.4456 162.723 35.3753C162.536 35.2305 158.215 31.9715 156.89 31.0683L154.134 31.2279L153.847 31.6134C154.367 32.2022 154.659 32.9639 154.659 33.756C154.659 35.5448 153.205 37 151.419 37Z" fill="#212121"/>
<circle cx="205" cy="25" r="24.6" fill="#F8F8F8" stroke="#212121" stroke-width="0.8"/>
<path d="M197.108 25.5605H196.298C196.044 25.5605 195.838 25.3555 195.838 25.1031V22.1437C195.838 21.8909 196.044 21.6863 196.298 21.6863H197.108C197.362 21.6863 197.568 21.8909 197.568 22.1437V25.1031C197.568 25.3555 197.362 25.5605 197.108 25.5605ZM214.702 25.5605H213.892C213.638 25.5605 213.432 25.3555 213.432 25.1031V22.1437C213.432 21.8909 213.638 21.6863 213.892 21.6863H214.702C214.956 21.6863 215.162 21.8909 215.162 22.1437V25.1031C215.162 25.3555 214.956 25.5605 214.702 25.5605ZM197.108 31.5518H196.298C196.044 31.5518 195.838 31.3469 195.838 31.0944V28.1349C195.838 27.8824 196.044 27.6775 196.298 27.6775H197.108C197.362 27.6775 197.568 27.8824 197.568 28.1349V31.0944C197.568 31.3469 197.362 31.5518 197.108 31.5518ZM214.702 31.5518H213.892C213.638 31.5518 213.432 31.3469 213.432 31.0944V28.1349C213.432 27.8824 213.638 27.6775 213.892 27.6775H214.702C214.956 27.6775 215.162 27.8824 215.162 28.1349V31.0944C215.162 31.3469 214.956 31.5518 214.702 31.5518ZM215.162 37.0852H216.081V13.9148H194.919V37.0852H195.838V34.1376C195.838 33.8851 196.044 33.6802 196.298 33.6802H197.108C197.362 33.6802 197.568 33.8851 197.568 34.1376V36.8931L201.412 35.5237V28.5016C201.351 28.5218 201.286 28.5321 201.219 28.5321C200.839 28.5321 200.53 28.1918 200.53 27.7738V26.1498C200.53 25.7317 200.839 25.3914 201.219 25.3914C201.286 25.3914 201.351 25.4018 201.412 25.4219V18.9649L197.568 17.1006V19.1C197.568 19.3525 197.362 19.5574 197.108 19.5574H196.298C196.044 19.5574 195.838 19.3525 195.838 19.1V15.876C195.838 15.6236 196.044 15.4186 196.298 15.4186H214.702C214.956 15.4186 215.162 15.6236 215.162 15.876V19.1C215.162 19.3525 214.956 19.5574 214.702 19.5574H213.892C213.638 19.5574 213.432 19.3525 213.432 19.1V17.1006L209.587 18.9649V25.418C209.645 25.4006 209.705 25.3914 209.768 25.3914C210.155 25.3914 210.458 25.7247 210.458 26.1498V27.7738C210.458 28.1992 210.155 28.5321 209.768 28.5321C209.705 28.5321 209.645 28.5227 209.587 28.5057V35.5237L213.432 36.8931V34.1376C213.432 33.8851 213.638 33.6802 213.892 33.6802H214.702C214.956 33.6802 215.162 33.8851 215.162 34.1376V37.0852ZM197.108 38C197.015 38 196.922 37.9716 196.843 37.9165C196.784 37.8747 196.736 37.8207 196.703 37.7586C196.625 37.9021 196.473 38 196.298 38H194.46C194.206 38 194 37.7951 194 37.5426V13.4574C194 13.2049 194.206 13 194.46 13H216.54C216.794 13 217 13.2049 217 13.4574V37.5426C217 37.7951 216.794 38 216.54 38H214.702C214.527 38 214.375 37.9021 214.297 37.7586C214.264 37.8207 214.216 37.8747 214.157 37.9165C214.034 38.0025 213.878 38.0232 213.737 37.9732L208.972 36.2766C208.79 36.2117 208.667 36.0393 208.667 35.846V18.6789C208.667 18.5042 208.768 18.3447 208.926 18.2679L212.916 16.3334H198.084L202.074 18.2679C202.231 18.3447 202.332 18.5042 202.332 18.6789V35.846C202.332 36.0393 202.21 36.2117 202.027 36.2766L197.263 37.9732C197.212 37.9908 197.16 38 197.108 38Z" fill="#212121"/>
</svg>
