<svg xmlns="http://www.w3.org/2000/svg" aria-hidden="true" style="position:absolute;width:0;height:0;overflow:hidden"><defs><symbol id="icon-facebook" viewBox="0 0 32 32"><path d="M0 0h32v32H0V0z"/></symbol><symbol id="icon-quote-marks" viewBox="0 0 49 32"><path d="M43.198 12.03a8.426 8.426 0 0 1 4.374 3.281 7.995 7.995 0 0 1 1.64 4.921c.122 1.823-.365 3.645-1.458 5.468-.972 1.701-2.552 3.159-4.739 4.374-3.524 1.823-6.622 2.309-9.296 1.458-2.673-.972-4.557-2.43-5.65-4.374-.608-.972-1.094-2.309-1.458-4.01a37.35 37.35 0 0 1-.364-5.286c.121-1.944.364-3.828.729-5.65s.911-3.342 1.64-4.557a35.955 35.955 0 0 1 2.187-2.734 25.269 25.269 0 0 1 2.552-2.552A26.93 26.93 0 0 1 37 0l6.379.365c-.851.972-1.64 1.883-2.369 2.734-.608.729-1.154 1.397-1.64 2.005s-.972 1.154-1.458 1.64c-.851.851-1.519 1.701-2.005 2.552a14.72 14.72 0 0 0-1.276 2.37 4.558 4.558 0 0 0 0 2.552c1.58-1.701 3.402-2.552 5.468-2.552.972 0 2.005.122 3.099.364zm-25.153.911c1.701.972 2.916 2.309 3.645 4.01.851 1.58 1.154 3.281.911 5.104s-1.033 3.524-2.37 5.104c-1.215 1.58-3.038 2.795-5.468 3.645-3.767 1.215-6.865 1.154-9.296-.182-2.43-1.458-4.071-3.22-4.921-5.286-.365-1.094-.547-2.491-.547-4.192s.182-3.463.547-5.286c.365-1.823.851-3.585 1.458-5.286S3.401 7.473 4.373 6.38c.729-.851 1.58-1.64 2.552-2.37.851-.608 1.823-1.276 2.916-2.005A30.908 30.908 0 0 1 13.851 0l6.379 1.64a35.466 35.466 0 0 1-2.734 2.187c-.729.608-1.397 1.154-2.005 1.64l-1.823 1.458a18.481 18.481 0 0 0-2.187 2.187 10.327 10.327 0 0 0-1.64 2.187 3.3 3.3 0 0 0-.547 2.369c.972-.729 1.944-1.154 2.916-1.276 1.094-.243 2.066-.304 2.916-.182.972.122 1.944.365 2.916.729z"/></symbol><symbol id="icon-brush" viewBox="0 0 32 32"><path stroke-width="1.333" d="M24.667 7.333H7.334v9.333a2.67 2.67 0 0 0 2.667 2.667h4V24a2 2 0 0 0 4 0v-4.667h4a2.67 2.67 0 0 0 2.667-2.667V7.333z"/><path stroke-linecap="round" stroke-linejoin="round" stroke-width="1.333" d="M8 15.333h16M21.333 8v2.667M18 8v4.667M10.667 8v1.333"/></symbol><symbol id="icon-time" viewBox="0 0 32 32"><path stroke-miterlimit="10" stroke-width="2.462" d="M16 4C9.375 4 4 9.375 4 16s5.375 12 12 12 12-5.375 12-12S22.625 4 16 4z"/><path stroke-linecap="round" stroke-linejoin="round" stroke-width="2.462" d="M16 8v9h6"/></symbol><symbol id="icon-closed" viewBox="0 0 29 32"><path stroke-linecap="round" stroke-linejoin="round" stroke-width="1.6" d="m21.333 8.889-12.8 14.222m0-14.222 12.8 14.222"/></symbol><symbol id="icon-cleaner" viewBox="0 0 32 32"><path fill="#f8f8f8" d="M14.708 17.068 7.553 3.611a.66.66 0 0 1-.049-.508.666.666 0 0 1 1.227-.119l7.155 13.457 1.015-.54a2.682 2.682 0 0 1 2.032-.196 2.665 2.665 0 0 1 1.575 1.299l.432.812 4.579 6.703-9.499 5.051-2.997-7.545-.431-.812a2.666 2.666 0 0 1 1.102-3.606l1.014-.539zm-.389 1.717 3.207-1.705a1.344 1.344 0 0 1 1.016-.098 1.338 1.338 0 0 1 .787.649l.432.811-5.562 2.957-.431-.812a1.344 1.344 0 0 1-.098-1.016 1.329 1.329 0 0 1 .649-.787zm.554 4.288 1.835 4.622 1.223-.65-1.443-2.81 1.187-.609 1.435 2.793 4.468-2.376-2.805-4.107-5.899 3.137zM10.907 23.487a.662.662 0 0 1 .737-.077.666.666 0 0 1 .115 1.103l-.002.002-.002.001-.007.005-.02.017-.069.053c-.058.044-.14.102-.245.173-.21.14-.513.323-.896.505A7.433 7.433 0 0 1 7.331 26a.665.665 0 1 1 0-1.332 6.092 6.092 0 0 0 2.613-.602c.252-.12.496-.257.729-.411.077-.051.152-.104.225-.16l.007-.007-.001.001zm2.13 4.401a.67.67 0 0 0 .185-.925.67.67 0 0 0-.925-.185l-.001.001-.013.008-.057.037a9.201 9.201 0 0 1-1.08.566c-.712.317-1.613.609-2.479.609a.665.665 0 1 0 0 1.332c1.135 0 2.233-.374 3.021-.724.428-.19.843-.408 1.242-.653l.076-.048.021-.014.007-.004.003-.003z" style="fill:var(--color1, #f8f8f8)"/></symbol><symbol id="icon-worker" viewBox="0 0 32 32"><path fill="#f8f8f8" d="m22.146 8.807-.06-.047c-.115-.876-.535-1.789-1.189-2.558C19.834 4.952 18.1 4 15.78 4c-2.287 0-3.898 1.043-4.849 2.335A5.45 5.45 0 0 0 10 8.34a4.785 4.785 0 0 0-.075.411l-.072.055c-.749.581-1.299 1.285-1.169 2.092.125.78.831 1.255 1.487 1.545.167.074.346.143.538.208a5.32 5.32 0 0 0 1.286 4.201 5.343 5.343 0 0 0 4.004 1.811 5.34 5.34 0 0 0 5.1-3.773 5.319 5.319 0 0 0 .19-2.239c.192-.064.371-.134.538-.208.656-.29 1.361-.765 1.487-1.545.131-.807-.419-1.511-1.169-2.092zm-10.85.974c-.087-.249-.109-.65.003-1.145.111-.483.34-1.013.7-1.504v1.869a.665.665 0 1 0 1.332 0v-3.06a4.729 4.729 0 0 1 2-.59v2.317a.665.665 0 1 0 1.332 0V5.393a5.394 5.394 0 0 1 2 .667v2.942a.665.665 0 1 0 1.332 0V7.214c.737.944.909 1.963.702 2.574a.668.668 0 0 0 .787.862.668.668 0 0 0 .385-.259c.131.183.127.281.124.296-.009.053-.111.273-.71.539-.26.115-.569.218-.917.309l-.016.004c-.377.097-.796.18-1.245.248a20.7 20.7 0 0 1-2.511.207c-.578.015-1.156.008-1.733-.019a19.99 19.99 0 0 1-1.984-.189c-.417-.06-.83-.143-1.239-.247l-.016-.004a6.065 6.065 0 0 1-.917-.309c-.599-.265-.701-.485-.71-.539-.003-.015-.007-.113.124-.296a.666.666 0 0 0 1.171-.609zm.718 3.206c.222.043.45.082.685.118.712.107 1.479.175 2.259.207.695.029 1.391.029 2.087 0 .776-.032 1.54-.1 2.249-.207.237-.035.468-.074.691-.118a4.006 4.006 0 0 1-1.038 3.047A4.008 4.008 0 0 1 16 17.329a4.001 4.001 0 0 1-3.985-4.342zM19.333 18.993V22h-6.667v-3.007a26.19 26.19 0 0 0-1.333.268C7.704 20.09 4 21.746 4 24v4h24v-4c0-2.253-3.705-3.91-7.333-4.739a27.344 27.344 0 0 0-1.333-.268zm-9.333 2c.436-.133.883-.254 1.333-.363v2.703h9.333v-2.702a21.75 21.75 0 0 1 2 .579v5.457h1.333v-4.935c.194.086.38.175.559.266.758.385 1.32.783 1.676 1.163.35.373.432.649.432.84v2.667H5.333v-2.667c0-.191.082-.467.432-.84.356-.38.918-.777 1.676-1.163a13.26 13.26 0 0 1 1.225-.543v5.213h1.333v-5.673z" style="fill:var(--color1, #f8f8f8)"/></symbol><symbol id="icon-mobile-menu" viewBox="0 0 32 32"><path fill="#f8f8f8" d="M4.8 8a1.6 1.6 0 0 1 1.6-1.6h19.2a1.6 1.6 0 0 1 0 3.2H6.4A1.6 1.6 0 0 1 4.8 8zm0 8a1.6 1.6 0 0 1 1.6-1.6h19.2a1.6 1.6 0 0 1 0 3.2H6.4A1.6 1.6 0 0 1 4.8 16zm9.6 8a1.6 1.6 0 0 1 1.6-1.6h9.6a1.6 1.6 0 0 1 0 3.2H16a1.6 1.6 0 0 1-1.6-1.6z" style="fill:var(--color1, #f8f8f8)"/></symbol><symbol id="icon-eco-plant" viewBox="0 0 32 32"><path fill="none" stroke="#f8f8f8" stroke-linecap="round" stroke-linejoin="round" stroke-width="1.454" d="M2.667 13.333c1.04-5.088 4.893-9.16 9.875-10.547.419-.116.627-.175.74-.051.113.125.029.331-.136.744l-1.145 2.52m6.666-3.332c5.088 1.04 9.16 4.893 10.547 9.875.116.419.175.627.051.74-.125.113-.331.029-.744-.136l-2.52-1.145m3.332 6.666c-1.04 5.088-4.893 9.16-9.875 10.547-.419.116-.627.175-.74.051-.113-.125-.029-.331.136-.744l1.145-2.52m-6.666 3.332c-5.088-1.04-9.16-4.893-10.547-9.875-.116-.419-.175-.627-.051-.74.125-.113.331-.029.744.136l2.52 1.145M16 14.799c-1.751 1.2-3.868 3.573-4.667 7.201m1.167-3.195c-2.763-6.392 2.811-8.548 7.052-8.788.512-.029.768-.044.951.143.184.187.173.453.152.984-.175 4.421-1.937 10.504-8.155 7.661z" style="stroke:var(--color1, #f8f8f8)"/></symbol><symbol id="icon-fire" viewBox="0 0 32 32"><path fill="none" stroke="#f8f8f8" stroke-linecap="round" stroke-linejoin="round" stroke-width="1.454" d="m13.333 22.667 5.333-5.333m-5.333-.001h.012m5.31 5.334h.012M16 29.333a10.666 10.666 0 0 0 10.666-10.666c0-8-10.667-16-10.667-16-.517 3.316-1.024 5.096-2.667 8-1.6-.74-2-1.333-2.667-3-2.667 3-5.333 7-5.333 11a10.666 10.666 0 0 0 10.666 10.666z" style="stroke:var(--color1, #f8f8f8)"/></symbol><symbol id="icon-hammer" viewBox="0 0 32 32"><path stroke-linecap="round" stroke-linejoin="round" stroke-width="1.333" d="M17.339 15.437a1.579 1.579 0 0 0-.255-.342l-1.146-1.131a1.358 1.358 0 0 0-.41-.286 1.302 1.302 0 0 0-1.455.267c-.397.391-1.125 1.105-2.437 2.402-2.51 2.483-7.171 6.645-9.278 8.42a.998.998 0 0 0-.291 1.127 1 1 0 0 0 .223.345l2.438 2.464a1.003 1.003 0 0 0 .752.295 1.017 1.017 0 0 0 .728-.351c1.827-2.148 6.019-6.813 8.5-9.264 1.274-1.254 1.989-1.974 2.393-2.371a1.357 1.357 0 0 0 .24-1.575zm12.563-2.875-2.144-2.125a.337.337 0 0 0-.25-.099.348.348 0 0 0-.25.1.712.712 0 0 1-.597.205c-.28-.031-.578-.117-.771-.304-.438-.429.068-1.272-.317-1.813a15.187 15.187 0 0 0-1.443-1.67c-.441-.438-2.176-2.092-5.097-3.283a7.746 7.746 0 0 0-2.938-.578c-1.647 0-2.913.735-3.375 1.157-.367.333-.75.861-.75.861.221-.081.447-.147.676-.2a4.972 4.972 0 0 1 1.455-.093c.972.081 2.144.537 2.773 1.031 1.013.813 1.449 1.899 1.517 3.302.05 1.043-.952 2.36-1.903 3.434a.486.486 0 0 0 .025.676l1.328 1.327a.5.5 0 0 0 .696.006c.871-.844 1.943-1.779 2.551-2.154s1.099-.48 1.334-.506c.463-.045.928.056 1.331.289.071.04.136.09.193.149.404.41.379 1.08-.031 1.484l-.125.118a.342.342 0 0 0 0 .49l2.144 2.125a.352.352 0 0 0 .25.099.353.353 0 0 0 .25-.099l3.466-3.428a.364.364 0 0 0 0-.5z"/></symbol><symbol id="icon-arrow-bottom" viewBox="0 0 32 32"><path fill="#f8f8f8" stroke="#f8f8f8" stroke-width="1.778" d="M22.743 12.94 16 19.683 9.257 12.94l.623-.625L16 18.423l6.118-6.108.625.625z" style="fill:var(--color1, #f8f8f8);stroke:var(--color1, #f8f8f8)"/></symbol><symbol id="icon-arrow-right" viewBox="0 0 32 32"><path d="m17.563 16-6.6-6.6 1.885-1.885L21.333 16l-8.485 8.485-1.885-1.885 6.6-6.6z"/></symbol><symbol id="icon-drill" viewBox="0 0 32 32"><path stroke-linecap="round" stroke-linejoin="round" stroke-width="1.333" d="M4 24a1.334 1.334 0 0 0-1.334 1.334 4.003 4.003 0 0 0 4 4h6.667A1.334 1.334 0 0 0 14.667 28v-2.667a1.334 1.334 0 0 0-1.334-1.334H4zm0 0 2.667-10.667m10.666 0h-12a2.668 2.668 0 0 1-2.667-2.667V5.333a2.668 2.668 0 0 1 2.667-2.667h12A1.335 1.335 0 0 1 18.667 4v8a1.334 1.334 0 0 1-1.334 1.334zm0 0-1.08 4.323a1.335 1.335 0 0 1-1.294 1.011h-4.293m8.001-13.334h4a1.335 1.335 0 0 1 1.334 1.334v2.667a1.334 1.334 0 0 1-1.334 1.334h-4M24 8h5.333m-20 16L12 13.333"/></symbol><symbol id="icon-mail" viewBox="0 0 32 32"><path stroke-linecap="round" stroke-linejoin="round" stroke-width="2.667" d="M5.333 5.333h21.333c1.467 0 2.667 1.2 2.667 2.667v16c0 1.467-1.2 2.667-2.667 2.667H5.333A2.675 2.675 0 0 1 2.666 24V8c0-1.467 1.2-2.667 2.667-2.667z"/><path stroke-linecap="round" stroke-linejoin="round" stroke-width="2.667" d="M29.333 8 16 17.333 2.667 8"/></symbol><symbol id="icon-map" viewBox="0 0 32 32"><path stroke-linecap="round" stroke-linejoin="round" stroke-width="2.667" d="M1.333 8v21.333L10.666 24l10.667 5.333L30.666 24V2.667L21.333 8 10.666 2.667 1.333 8zM10.667 2.667V24M21.333 8v21.333"/></symbol><symbol id="icon-wheelbarrow" viewBox="0 0 37 32"><path d="M5.438 11.496c.026.012.09.032.221.032l.045-.001h.04l18.163-1.216c.067-.004.293-.029.332-.152.012-.033.007-.059-.011-.081-.789-.588-1.757-1.089-2.692-1.573-2.433-1.259-5.183-2.683-5.313-6.062-.643-.544-1.639-1.355-2.388-1.355l-.035.001a1.485 1.485 0 0 0-.197.037c-2.646.776-8.381 9.056-8.165 10.369zm.221 1.12c-.481 0-.849-.156-1.093-.463-.347-.467-.185-1.124-.034-1.579C5.497 7.673 10.67.853 13.302.081c.139-.04.265-.058.375-.074a.656.656 0 0 1 .046-.004c1.218-.068 2.479.998 3.301 1.695l.042.036a.44.44 0 0 1 .032.029l.043.043c.103.102.16.241.16.386 0 2.897 2.298 4.086 4.73 5.345.988.511 2.009 1.04 2.876 1.692a1.155 1.155 0 0 1 .354 1.285c-.157.498-.64.838-1.282.882l-18.2 1.217-.061.001-.06.001zm9.591 11.583c1.49 1.094 3.142 2.33 4.115 3.062l2.63-3.43-6.745.368zm4.217 4.365a.532.532 0 0 1-.326-.11 402.78 402.78 0 0 0-5.762-4.273.546.546 0 0 1 .287-.986l9.448-.515a.545.545 0 0 1 .459.875l-3.676 4.796a.54.54 0 0 1-.429.212zM36.024 9.637c-.087.038-.173.075-.259.11l.27-.079a.096.096 0 0 0-.012-.031zM4.376 24.784c-1.682 0-3.05 1.374-3.05 3.063s1.368 3.064 3.05 3.064a3.067 3.067 0 0 0 3.064-3.064 3.06 3.06 0 0 0-1.028-2.284.545.545 0 0 1-.075-.733l.798-1.074a.54.54 0 0 1 .403-.218l3.962-.229a.537.537 0 0 1 .33.089c1.19.79 6.356 4.635 7.51 5.528l.494-.06 4.635-6.047c.1-.13.253-.208.416-.212l.403-.01a.275.275 0 0 1 .036-.015l.858-2.433 2.933-6.946a.56.56 0 0 1 .15-.204l.507-.429a4.061 4.061 0 0 1-.481.3l-.152.169a.54.54 0 0 1-.458.291L1.35 14.434a218.581 218.581 0 0 0 2.833 4.549 232.788 232.788 0 0 1 2.666 4.273.548.548 0 0 1-.028.607l-.698.945a.542.542 0 0 1-.633.182 3.031 3.031 0 0 0-1.113-.206zm0 7.216C2.097 32 .243 30.137.243 27.848s1.854-4.152 4.133-4.152c.383 0 .754.049 1.109.147l.247-.334a249.564 249.564 0 0 0-2.465-3.94c-.99-1.562-2.014-3.177-2.991-4.812l-.01-.008c-.097-.12-.3-.369-.263-.712a.797.797 0 0 1 .317-.546c.09-.071.2-.112.314-.116l27.751-1.121.171-.189a.52.52 0 0 1 .173-.128c.351-.164.755-.51 1.145-.844.435-.372.885-.757 1.356-.986.802-.38 1.584-.594 2.339-.8.773-.211 1.503-.41 2.249-.774a.537.537 0 0 1 .43-.019c.743.286 1.041.958.777 1.754a.541.541 0 0 1-.362.351l-4.436 1.299-2.165 1.832-2.871 6.795-.957 2.718a.54.54 0 0 1-.475.361l-.022.002a.534.534 0 0 1-.228.057l-.34.008-4.616 6.021a.539.539 0 0 1-.364.208l-.941.114a.534.534 0 0 1-.402-.114c-.24-.185-5.771-4.357-7.466-5.513l-3.528.204-.367.493a4.15 4.15 0 0 1 1.039 2.743 4.154 4.154 0 0 1-4.147 4.152z"/></symbol><symbol id="icon-door" viewBox="0 0 29 32"><path d="M3.978 16.077H2.941a.586.586 0 0 1-.588-.585v-3.788c0-.324.264-.585.588-.585h1.037c.325 0 .588.262.588.585v3.788a.587.587 0 0 1-.588.585zm22.521 0h-1.037a.587.587 0 0 1-.589-.585v-3.788c0-.324.264-.585.589-.585h1.037c.325 0 .589.262.589.585v3.788a.587.587 0 0 1-.589.585zM3.978 23.746H2.941a.586.586 0 0 1-.588-.585v-3.788c0-.323.264-.585.588-.585h1.037c.325 0 .588.262.588.585v3.788a.587.587 0 0 1-.588.585zm22.521 0h-1.037a.587.587 0 0 1-.589-.585v-3.788c0-.323.264-.585.589-.585h1.037c.325 0 .589.262.589.585v3.788a.587.587 0 0 1-.589.585zm.588 7.083h1.176V1.171H1.177v29.658h1.176v-3.773c0-.323.264-.585.588-.585h1.037c.325 0 .588.262.588.585v3.527l4.921-1.753v-8.988a.788.788 0 0 1-.247.039c-.487 0-.883-.436-.883-.971v-2.079c0-.535.396-.971.883-.971.086 0 .168.013.247.039V7.634L4.566 5.248v2.559a.587.587 0 0 1-.588.585H2.941a.586.586 0 0 1-.588-.585V3.68c0-.323.264-.585.588-.585h23.558c.325 0 .589.262.589.585v4.127a.587.587 0 0 1-.589.585h-1.037a.587.587 0 0 1-.589-.585V5.248l-4.922 2.386v8.26a.809.809 0 0 1 .232-.034c.495 0 .882.427.882.971v2.079c0 .544-.388.971-.882.971a.803.803 0 0 1-.232-.034v8.983l4.922 1.753v-3.527c0-.323.264-.585.589-.585h1.037c.325 0 .589.262.589.585v3.773zM3.978 32a.585.585 0 0 1-.519-.309.59.59 0 0 1-.519.309H.587a.586.586 0 0 1-.588-.585V.586c0-.323.264-.585.588-.585H28.85c.325 0 .588.262.588.585v30.829a.587.587 0 0 1-.588.585h-2.353a.59.59 0 0 1-.519-.309.59.59 0 0 1-.717.275l-6.098-2.172a.585.585 0 0 1-.39-.551V7.269c0-.224.129-.428.331-.526l5.108-2.476H5.226l5.107 2.476a.587.587 0 0 1 .331.526v21.974a.587.587 0 0 1-.39.551l-6.098 2.172a.589.589 0 0 1-.198.034z"/></symbol><symbol id="icon-phone" viewBox="0 0 32 32"><path stroke-linecap="round" stroke-linejoin="round" stroke-width="2.667" d="M29.333 22.56v4a2.67 2.67 0 0 1-1.812 2.537 2.672 2.672 0 0 1-1.094.13 26.398 26.398 0 0 1-11.507-4.093 25.988 25.988 0 0 1-8-8 26.382 26.382 0 0 1-4.093-11.56 2.657 2.657 0 0 1 .687-2.038 2.664 2.664 0 0 1 1.967-.868h4a2.67 2.67 0 0 1 2.667 2.294 17.16 17.16 0 0 0 .933 3.747 2.675 2.675 0 0 1-.6 2.814l-1.693 1.693a21.333 21.333 0 0 0 8 8l1.693-1.693a2.661 2.661 0 0 1 2.813-.6c1.21.451 2.467.765 3.747.933a2.665 2.665 0 0 1 2.293 2.707z"/></symbol><symbol id="icon-mobil-phone" viewBox="0 0 32 32"><path fill="none" stroke="currentColor" stroke-linecap="round" stroke-linejoin="round" stroke-width="2.462" d="M20.333 3.667h-8.667a4 4 0 0 0-4 4v16.667a4 4 0 0 0 4 4h8.667a4 4 0 0 0 4-4V7.667a4 4 0 0 0-4-4zM14.667 23.667h2.667"/></symbol><symbol id="icon-viber" viewBox="0 0 32 32"><path fill="currentColor" d="M16.001 2.667c7.364 0 13.333 5.969 13.333 13.333s-5.969 13.333-13.333 13.333a13.273 13.273 0 0 1-6.707-1.807l-6.621 1.807 1.803-6.624A13.268 13.268 0 0 1 2.668 16c0-7.364 5.969-13.333 13.333-13.333zm-4.544 7.066-.267.011a1.34 1.34 0 0 0-.496.133 1.703 1.703 0 0 0-.392.304c-.16.151-.251.281-.348.408a3.64 3.64 0 0 0-.755 2.237c.003.653.173 1.289.44 1.884.545 1.203 1.443 2.476 2.627 3.656.285.284.565.569.867.835a12.602 12.602 0 0 0 5.12 2.728l.757.116c.247.013.493-.005.741-.017a2.686 2.686 0 0 0 1.111-.308 6.81 6.81 0 0 0 .511-.293s.056-.038.167-.12c.18-.133.291-.228.44-.384.112-.116.205-.25.28-.403.104-.217.208-.632.251-.977.032-.264.023-.408.019-.497-.005-.143-.124-.291-.253-.353l-.776-.348s-1.16-.505-1.869-.828a.678.678 0 0 0-.235-.055.635.635 0 0 0-.504.169c-.007-.003-.096.073-1.06 1.241a.463.463 0 0 1-.491.173 1.92 1.92 0 0 1-.255-.088c-.165-.069-.223-.096-.336-.144a8.013 8.013 0 0 1-2.1-1.337c-.168-.147-.324-.307-.484-.461a8.363 8.363 0 0 1-1.36-1.691l-.079-.127a1.338 1.338 0 0 1-.136-.273c-.051-.196.081-.353.081-.353s.324-.355.475-.547a5.74 5.74 0 0 0 .351-.497c.157-.253.207-.513.124-.715a108.26 108.26 0 0 0-1.157-2.721c-.079-.179-.312-.307-.524-.332a3.944 3.944 0 0 0-.216-.021 4.182 4.182 0 0 0-.537.005l.269-.009z"/></symbol><symbol id="icon-foam-roller" viewBox="0 0 32 32"><path fill="currentColor" stroke="currentColor" d="M8 6c0-1.247 0-1.869.268-2.333.176-.304.428-.556.732-.732.464-.268 1.087-.268 2.333-.268h9.333c1.247 0 1.869 0 2.333.268.304.176.556.428.732.732.268.464.268 1.087.268 2.333s0 1.869-.268 2.333a2 2 0 0 1-.732.732c-.464.268-1.087.268-2.333.268h-9.333c-1.247 0-1.869 0-2.333-.268a2.007 2.007 0 0 1-.732-.732C8 7.869 8 7.246 8 6zm5.333 15.333v5.333c0 1.257 0 1.885.391 2.276s1.019.391 2.276.391 1.885 0 2.276-.391.391-1.019.391-2.276v-5.333c0-1.257 0-1.885-.391-2.276s-1.019-.391-2.276-.391-1.885 0-2.276.391-.391 1.019-.391 2.276z"/><path fill="currentColor" stroke="currentColor" d="M25.393 7c.607 0 1.013 0 1.328.021.307.02.457.056.556.093.431.171.771.511.94.941.04.099.075.249.095.556.021.315.021.721.021 1.328 0 1.116-.013 1.423-.095 1.652a1.67 1.67 0 0 1-.789.916c-.215.115-.516.173-1.62.34l-5.497.824c-1.031.155-1.895.284-2.579.477-.724.203-1.365.507-1.865 1.088-.773.899-.859 2.067-.881 3.413v.027c.28-.011.607-.011.993-.011.393 0 .724 0 1.007.012.024-1.417.156-1.856.397-2.136.147-.169.369-.323.891-.468.548-.155 1.287-.267 2.396-.433l5.595-.84c.867-.129 1.544-.229 2.103-.527a3.667 3.667 0 0 0 1.736-2.017c.211-.596.211-1.28.209-2.156v-.195c0-.565 0-1.039-.025-1.427a3.747 3.747 0 0 0-.229-1.157 3.665 3.665 0 0 0-2.068-2.069 3.736 3.736 0 0 0-1.159-.229 23.408 23.408 0 0 0-1.427-.025h-1.425v2l1.393.001zM6.333 6a.997.997 0 0 1 1-1H8v2h-.667a.997.997 0 0 1-1-1z"/></symbol><symbol id="icon-wrench" viewBox="0 0 32 32"><path fill="none" stroke="#f8f8f8" stroke-linecap="round" stroke-linejoin="round" stroke-width="1.684" d="M19.6 8.4a1.333 1.333 0 0 0 0 1.866l2.133 2.133a1.333 1.333 0 0 0 1.866 0l5.027-5.027a7.997 7.997 0 0 1-5.855 11.169 7.998 7.998 0 0 1-4.732-.582l-9.213 9.213a2.83 2.83 0 0 1-4-4l9.213-9.213A7.997 7.997 0 0 1 19.894 2.79a7.998 7.998 0 0 1 4.732.582l-5.027 5.027z" style="stroke:var(--color1, #f8f8f8)"/></symbol><symbol id="icon-logo" viewBox="0 0 45 32"><path fill="#f8f8f8" d="m20.46.812-3.368 2.441-3.291 2.385c-2.559 1.853-3.522 2.558-3.535 2.587-.008.017.23.282.529.59l.542.558.21-.149c.239-.169 3.76-2.726 5.035-3.655.463-.338 1.519-1.104 2.347-1.703s1.776-1.287 2.107-1.528c.384-.281.624-.426.664-.403.034.02 1.268.901 2.741 1.958 2.82 2.024 3.876 2.78 5.919 4.237l1.474 1.053c.19.137.232.151.281.093.031-.037.258-.287.503-.554s.447-.505.447-.527c0-.045-11.282-8.161-11.39-8.194-.036-.011-.583.354-1.214.812zm-7.985.171c-.037.151.007.327.096.379.031.019.795.034 1.696.034 1.837.001 1.772.013 1.744-.328L15.995.87 12.508.846l-.034.137zm.386.952c-.108.08-.109.09-.095 1.918l.014 1.838 2.936-2.072-.028-1.648-.128-.058c-.092-.042-.469-.058-1.359-.059-1.098-.001-1.244.008-1.341.08zm8.441 1.009c-.588.443-5.905 4.386-7.246 5.374-.561.413-1.037.773-1.058.8s-.038 2.436-.038 5.354l-.001 5.306h9.185v-4.299c0-3.975.007-4.307.087-4.412.178-.232.104-.225 2.541-.226 2.158-.001 2.306.004 2.453.085.344.188.328-.045.328 4.63v4.222h2.654l-.001-11.162-.905-.641c-.498-.352-1.583-1.125-2.411-1.717l-3.266-2.334c-.968-.692-1.783-1.274-1.812-1.293s-.257.121-.51.312zm-3.521 9.477-2.067.025V10.29h2.094l-.027 2.131zm2.73.023h-2.143V10.29h2.143v2.154zm-10.94-1.191c-.07.158-.082.429-.082 1.879v1.695h-.25c-.264 0-.312.039-.312.252 0 .195.053.252.235.252h.173v1.884l-.422.558.029.761c.028.724.09 1.103.204 1.233.037.043.193.055.566.046.493-.012.517-.018.575-.128.075-.141.154-.686.197-1.352l.033-.504-.416-.576v-1.916l.166-.014c.163-.014.166-.018.166-.243v-.229l-.536-.028v-1.715c0-1.514-.01-1.734-.086-1.877-.047-.089-.102-.162-.122-.162s-.073.083-.118.184zm24.086-.025c-.075.051-.107.164-.147.509-.038.329-.076.466-.146.529-.084.075-.096.16-.096.68 0 .341.024.642.057.707s.353.294.738.531c.375.23.716.463.759.518.059.076.078.229.078.638v.538l-.293.014c-.275.013-.294.021-.309.136-.012.09.012.13.089.152.103.029.105.055.105 1.61 0 1.695.015 1.805.261 1.96.134.084.411.098.558.028a.588.588 0 0 0 .188-.195c.08-.131.092-.324.106-1.747.016-1.579.018-1.601.128-1.682.177-.131.063-.245-.264-.262l-.263-.014v-1.233l-.193-.172c-.106-.095-.474-.343-.816-.553s-.623-.403-.623-.431.042-.016.093.026c.084.068.324.076 2.389.076 1.85 0 2.314-.012 2.39-.062.1-.066.17-.375.176-.786.003-.178.027-.243.106-.287.129-.072.132-.222.007-.283-.079-.038-.099-.115-.119-.444-.036-.616.184-.568-2.56-.566-1.912.001-2.32.013-2.399.067zm-26.311.168c0 .029.088.25.196.493.265.595.281.665.173.748-.127.098-.813.314-.901.284-.041-.014-.099-.091-.13-.171-.168-.436-.434-.947-.493-.947-.123 0-.238.482-.213.89.028.453.127.642.521.988l.285.251v.964c0 .53-.022 1.036-.049 1.125-.126.418-.255 2.663-.183 3.184.032.233.067.299.231.447.171.153.222.173.441.173.314 0 .533-.117.656-.348.086-.162.09-.275.06-1.415-.025-.926-.058-1.366-.134-1.743-.119-.594-.15-2.334-.045-2.513.032-.055.239-.36.459-.677.267-.385.4-.623.4-.714 0-.288-.429-.715-.957-.953-.291-.131-.319-.137-.319-.064zm10.448 1.549c.007.001.013.508.013 1.126v1.123h-2.092v-1.115c0-.614.017-1.131.038-1.151.027-.025 1.909-.009 2.041.018zm2.717 2.249h-2.143v-2.246h2.143v2.246zm11.405-2.15c-.542.193-.653.484-.408 1.069l.128.304v5.361h.51v-2.684c0-2.957-.024-2.728.328-3.18.261-.336.264-.342.125-.277a2.548 2.548 0 0 0-.283.165c-.194.13-.378.14-.493.025-.129-.128-.105-.206.154-.496.355-.398.344-.383.265-.38a1.881 1.881 0 0 0-.325.093zm-20.807.675c.015.32.034.588.042.598s.023-.243.032-.561c.011-.402-.002-.584-.042-.598-.043-.015-.051.136-.032.561zm.203.003c.031.501-.001.693-.115.693-.047 0-.076.044-.076.115 0 .105.019.115.23.115h.23v-.588c0-.555-.007-.593-.118-.688-.065-.055-.132-.1-.148-.1s-.018.204-.002.453zm25.337.815c-.047.017-.064.221-.064.799v.775h1.378v-.774c0-.664-.012-.778-.081-.802-.096-.033-1.141-.031-1.233.002zm-25.579.314c-.137.148-.2 1.07-.201 2.947-.001 1.189.017 1.88.051 1.937.044.074.109.089.4.089.568 0 .528.187.501-2.345-.013-1.24-.046-2.257-.075-2.373-.029-.112-.093-.231-.144-.264-.125-.082-.453-.076-.532.01zm22.233.389c-.042.173-.132 1.215-.135 1.567-.002.186-.017.216-.115.229-.148.019-.233.308-.152.515.042.107.038.213-.018.439a5.54 5.54 0 0 0-.101.825c-.022.433-.011.568.064.756l.091.229.304.014c.469.022.523-.002.613-.275.043-.13.078-.346.078-.479 0-.278-.144-1.2-.202-1.294-.021-.035-.006-.122.034-.194.053-.095.061-.184.03-.326-.037-.167-.063-.198-.182-.21l-.139-.015-.004-.581a8.26 8.26 0 0 0-.065-.971c-.055-.351-.065-.374-.101-.229zm3.078 2.62c0 1.266.006 1.35.107 1.537.291.54 1.192.604 1.561.112.151-.201.171-.43.156-1.794l-.012-1.169-1.812-.025v1.339zm-1.114.894c.134.109.128.469-.011.603-.205.198-.496.067-.542-.244-.05-.336.301-.564.553-.359zm-27.79.121c.185.143.183.335-.004.48-.105.081-.175.101-.274.079-.459-.103-.395-.633.081-.661.034-.002.123.044.198.102zm26.055.154c.116.094.119.19.009.299a.302.302 0 0 1-.397.012c-.103-.093-.102-.197.004-.303.105-.104.261-.108.384-.008zM6.219 20.416c-.117.105-.149.175-.149.324 0 .104.025.232.055.282.14.235-.788.222 16.234.222 15.604 0 15.836-.001 15.996-.089.23-.126.314-.387.198-.608a.529.529 0 0 0-.212-.213c-.094-.039-4.252-.052-16.05-.052H6.368l-.149.134zM0 30.653v-4.79h1.013v1.976h2.056v-1.976h1.01v4.79h-1.01v-1.979H1.013v1.979H0zM5.92 30.721a1.51 1.51 0 0 1-.613-.119.989.989 0 0 1-.426-.358 1.071 1.071 0 0 1-.154-.594c0-.2.037-.367.11-.503s.173-.245.299-.327c.126-.083.27-.145.43-.187.162-.042.332-.072.51-.089.209-.022.377-.042.505-.061.128-.02.221-.05.278-.089s.087-.097.087-.173v-.014a.433.433 0 0 0-.14-.344c-.092-.081-.223-.122-.393-.122a.701.701 0 0 0-.428.119.546.546 0 0 0-.21.295l-.922-.075a1.258 1.258 0 0 1 .807-.935c.218-.087.471-.131.758-.131.2 0 .391.023.573.07.184.047.347.119.489.217.143.098.256.224.339.379.083.153.124.336.124.55v2.423h-.945v-.498H6.97a1.022 1.022 0 0 1-.232.297 1.09 1.09 0 0 1-.349.199c-.136.047-.292.07-.47.07zm.285-.688a.831.831 0 0 0 .388-.087c.112-.059.2-.139.264-.239s.096-.213.096-.339v-.381a.531.531 0 0 1-.129.056c-.053.016-.113.03-.18.044l-.201.035a13.24 13.24 0 0 0-.182.026c-.117.017-.219.044-.306.082s-.155.088-.204.152a.37.37 0 0 0-.072.234c0 .136.049.239.147.311.1.07.226.105.379.105zM9.713 28.576v2.077h-.996v-3.592h.95v.634h.042c.079-.209.213-.374.4-.496.187-.123.414-.185.681-.185.249 0 .467.055.653.164s.33.265.433.468c.103.201.154.441.154.72v2.287h-.996v-2.11c.002-.22-.055-.391-.168-.515a.604.604 0 0 0-.47-.187.707.707 0 0 0-.355.087.61.61 0 0 0-.239.253.882.882 0 0 0-.087.395zM14.137 30.711c-.273 0-.52-.07-.741-.21a1.459 1.459 0 0 1-.524-.624c-.128-.276-.192-.614-.192-1.015 0-.412.066-.754.199-1.027.133-.274.309-.479.529-.615.221-.137.464-.206.727-.206.201 0 .369.034.503.103a.948.948 0 0 1 .327.253c.084.1.148.198.192.295h.03v-1.801h.994v4.79h-.982v-.575h-.042c-.047.1-.113.199-.199.297a.98.98 0 0 1-.33.241 1.134 1.134 0 0 1-.491.096zm.316-.792a.639.639 0 0 0 .407-.131.831.831 0 0 0 .257-.372c.061-.159.091-.345.091-.559s-.03-.399-.089-.557c-.059-.157-.145-.279-.257-.365s-.249-.129-.409-.129c-.164 0-.302.044-.414.133s-.197.212-.255.37c-.058.157-.087.34-.087.547 0 .209.029.394.087.554a.848.848 0 0 0 .255.374c.112.089.25.133.414.133zM17.616 32a1.99 1.99 0 0 1-.355-.03 1.342 1.342 0 0 1-.271-.072l.225-.744c.117.036.222.055.316.058a.403.403 0 0 0 .246-.066.49.49 0 0 0 .171-.239l.058-.152-1.289-3.695h1.048l.744 2.638h.037l.751-2.638h1.055l-1.396 3.98a1.656 1.656 0 0 1-.274.505 1.12 1.12 0 0 1-.433.334 1.51 1.51 0 0 1-.632.119zM23.477 27.241c-.019-.189-.099-.335-.241-.44s-.334-.157-.578-.157c-.165 0-.305.023-.419.07a.588.588 0 0 0-.262.189.457.457 0 0 0-.089.276.39.39 0 0 0 .054.224.57.57 0 0 0 .166.166c.07.045.151.085.243.119.092.033.19.061.295.084l.43.103c.209.047.401.109.575.187s.326.174.454.288c.128.114.227.248.297.402.072.154.108.331.11.531a1.32 1.32 0 0 1-.225.762c-.147.214-.359.38-.636.498-.276.117-.609.175-.999.175a2.62 2.62 0 0 1-1.01-.178 1.49 1.49 0 0 1-.669-.526c-.159-.234-.242-.523-.25-.868h.98a.733.733 0 0 0 .138.402.775.775 0 0 0 .33.241c.139.053.295.079.47.079.172 0 .32-.025.447-.075.128-.05.227-.119.297-.208s.105-.191.105-.306a.396.396 0 0 0-.096-.271.72.72 0 0 0-.276-.187 2.831 2.831 0 0 0-.442-.14l-.522-.131c-.404-.098-.723-.252-.957-.461s-.35-.49-.349-.844c-.002-.29.076-.543.232-.76.157-.217.373-.386.648-.508s.586-.182.936-.182c.356 0 .666.061.931.182.267.122.474.291.622.508s.225.468.229.753h-.971zM26.813 30.723c-.37 0-.688-.075-.954-.225a1.54 1.54 0 0 1-.613-.641 2.123 2.123 0 0 1-.215-.985c0-.37.072-.694.215-.973s.345-.497.606-.652c.262-.156.569-.234.922-.234.237 0 .458.038.662.115a1.474 1.474 0 0 1 .898.91c.086.228.129.494.129.8v.274h-3.034v-.617h2.096c0-.143-.031-.271-.094-.381s-.149-.197-.26-.26a.739.739 0 0 0-.381-.096.768.768 0 0 0-.402.105.738.738 0 0 0-.271.278.795.795 0 0 0-.101.386v.587c0 .178.033.331.098.461.067.129.161.229.283.299s.266.105.433.105c.111 0 .212-.016.304-.047s.171-.078.236-.14.115-.139.15-.229l.922.061a1.262 1.262 0 0 1-.288.58 1.438 1.438 0 0 1-.557.384c-.226.09-.487.136-.784.136zM29.113 30.653v-3.592h.966v.627h.037a.927.927 0 0 1 .33-.505.868.868 0 0 1 .533-.173 1.547 1.547 0 0 1 .313.035v.884a1.726 1.726 0 0 0-.421-.053.794.794 0 0 0-.393.096.703.703 0 0 0-.369.65v2.032h-.996zM35.266 27.061l-1.256 3.592h-1.123l-1.256-3.592h1.053l.746 2.57h.037l.744-2.57h1.055zM35.776 30.653v-3.592h.996v3.592h-.996zm.501-4.055a.542.542 0 0 1-.381-.147.48.48 0 0 1 0-.711c.106-.1.233-.15.381-.15s.274.05.379.15a.475.475 0 0 1 0 .711.534.534 0 0 1-.379.147zM39.194 30.723c-.368 0-.685-.078-.95-.234a1.576 1.576 0 0 1-.608-.655 2.12 2.12 0 0 1-.211-.964c0-.368.071-.691.213-.968.143-.279.347-.497.61-.652.264-.157.577-.236.94-.236.313 0 .588.057.823.171s.422.274.559.479c.137.206.213.448.227.725h-.94a.733.733 0 0 0-.211-.433.601.601 0 0 0-.442-.166.667.667 0 0 0-.404.126c-.114.083-.203.203-.267.363s-.096.352-.096.578c0 .229.031.424.094.585.064.161.153.283.269.367s.25.126.404.126a.65.65 0 0 0 .306-.07.598.598 0 0 0 .227-.203.78.78 0 0 0 .12-.325h.94a1.48 1.48 0 0 1-.225.725c-.133.207-.316.369-.55.486s-.51.175-.83.175zM43.074 30.723c-.37 0-.688-.075-.954-.225a1.535 1.535 0 0 1-.613-.641 2.123 2.123 0 0 1-.215-.985c0-.37.072-.694.215-.973s.345-.497.606-.652c.262-.156.569-.234.921-.234.237 0 .458.038.662.115a1.474 1.474 0 0 1 .898.91c.086.228.129.494.129.8v.274h-3.034v-.617h2.096c0-.143-.031-.271-.093-.381s-.149-.197-.26-.26a.739.739 0 0 0-.381-.096.768.768 0 0 0-.402.105.738.738 0 0 0-.271.278.784.784 0 0 0-.101.386v.587c0 .178.033.331.098.461.067.129.162.229.283.299s.266.105.433.105c.111 0 .212-.016.304-.047s.171-.078.236-.14.115-.139.15-.229l.921.061a1.262 1.262 0 0 1-.288.58 1.438 1.438 0 0 1-.557.384c-.226.09-.487.136-.783.136z" style="fill:var(--color1, #f8f8f8)"/></symbol></defs></svg>