<svg width="32" height="32" viewBox="0 0 32 32" fill="none" xmlns="http://www.w3.org/2000/svg">
<path d="M8 6C8 4.75334 8 4.13067 8.268 3.66667C8.44353 3.36266 8.69599 3.1102 9 2.93467C9.464 2.66667 10.0867 2.66667 11.3333 2.66667H20.6667C21.9133 2.66667 22.536 2.66667 23 2.93467C23.304 3.1102 23.5565 3.36266 23.732 3.66667C24 4.13067 24 4.75334 24 6C24 7.24667 24 7.86934 23.732 8.33334C23.5565 8.63735 23.304 8.88981 23 9.06534C22.536 9.33334 21.9133 9.33334 20.6667 9.33334H11.3333C10.0867 9.33334 9.464 9.33334 9 9.06534C8.69599 8.88981 8.44353 8.63735 8.268 8.33334C8 7.86934 8 7.24667 8 6ZM13.3333 21.3333V26.6667C13.3333 27.924 13.3333 28.552 13.724 28.9427C14.1147 29.3333 14.7427 29.3333 16 29.3333C17.2573 29.3333 17.8853 29.3333 18.276 28.9427C18.6667 28.552 18.6667 27.924 18.6667 26.6667V21.3333C18.6667 20.076 18.6667 19.448 18.276 19.0573C17.8853 18.6667 17.2573 18.6667 16 18.6667C14.7427 18.6667 14.1147 18.6667 13.724 19.0573C13.3333 19.448 13.3333 20.076 13.3333 21.3333Z" fill="#F8F8F8"/>
<path d="M25.3934 7C26 7 26.4067 7 26.7214 7.02134C27.028 7.04134 27.1787 7.07734 27.2774 7.11467C27.708 7.28534 28.048 7.62534 28.2174 8.056C28.2574 8.15467 28.292 8.30534 28.312 8.612C28.3334 8.92667 28.3334 9.33334 28.3334 9.94C28.3334 11.056 28.32 11.3627 28.2387 11.592C28.0995 11.9854 27.8179 12.3122 27.4494 12.508C27.2347 12.6227 26.9334 12.6813 25.8294 12.848L20.332 13.672C19.3014 13.8267 18.4374 13.956 17.7534 14.1493C17.0294 14.352 16.388 14.656 15.888 15.2373C15.1147 16.136 15.0294 17.304 15.0067 18.6507V18.6773C15.2867 18.6667 15.6134 18.6667 16 18.6667C16.3934 18.6667 16.724 18.6667 17.0067 18.6787C17.0307 17.2613 17.1627 16.8227 17.404 16.5427C17.5507 16.3733 17.7734 16.22 18.2947 16.0747C18.8427 15.92 19.5814 15.808 20.6907 15.6413L26.2854 14.8013C27.152 14.672 27.8294 14.572 28.388 14.2747C29.199 13.8434 29.8185 13.1235 30.124 12.2573C30.3347 11.6613 30.3347 10.9773 30.3334 10.1013V9.90667C30.3334 9.34134 30.3334 8.868 30.308 8.48C30.2934 8.08451 30.216 7.69385 30.0787 7.32267C29.8945 6.85428 29.6158 6.42883 29.26 6.07282C28.9043 5.71681 28.479 5.43786 28.0107 5.25334C27.6391 5.11589 27.248 5.03848 26.852 5.024C26.3768 5.00142 25.9011 4.99297 25.4254 4.99867H24V6.99867L25.3934 7Z" fill="#F8F8F8"/>
<path fill-rule="evenodd" clip-rule="evenodd" d="M6.33337 6C6.33337 5.73478 6.43873 5.48043 6.62627 5.29289C6.8138 5.10536 7.06816 5 7.33337 5H8.00004V7H7.33337C7.06816 7 6.8138 6.89464 6.62627 6.70711C6.43873 6.51957 6.33337 6.26522 6.33337 6Z" fill="#F8F8F8"/>
</svg>
