<svg width="54" height="54" viewBox="0 0 54 54" fill="none" xmlns="http://www.w3.org/2000/svg">
<circle cx="27" cy="27" r="27" fill="#5E81AC"/>
<path d="M27.001 17C32.524 17 37.001 21.477 37.001 27C37.001 32.523 32.524 37 27.001 37C25.2337 37.003 23.4976 36.5353 21.971 35.645L17.005 37L18.357 32.032C17.466 30.5049 16.9979 28.768 17.001 27C17.001 21.477 21.478 17 27.001 17ZM23.593 22.3L23.393 22.308C23.2637 22.3169 23.1373 22.3509 23.021 22.408C22.9126 22.4695 22.8136 22.5463 22.727 22.636C22.607 22.749 22.539 22.847 22.466 22.942C22.0961 23.4229 21.897 24.0133 21.9 24.62C21.902 25.11 22.03 25.587 22.23 26.033C22.639 26.935 23.312 27.89 24.2 28.775C24.414 28.988 24.624 29.202 24.85 29.401C25.9534 30.3724 27.2683 31.073 28.69 31.447L29.258 31.534C29.443 31.544 29.628 31.53 29.814 31.521C30.1052 31.5056 30.3895 31.4268 30.647 31.29C30.7778 31.2223 30.9056 31.1489 31.03 31.07C31.03 31.07 31.0723 31.0413 31.155 30.98C31.29 30.88 31.373 30.809 31.485 30.692C31.569 30.6053 31.639 30.5047 31.695 30.39C31.773 30.227 31.851 29.916 31.883 29.657C31.907 29.459 31.9 29.351 31.897 29.284C31.893 29.177 31.804 29.066 31.707 29.019L31.125 28.758C31.125 28.758 30.255 28.379 29.723 28.137C29.6673 28.1128 29.6077 28.0989 29.547 28.096C29.4786 28.0888 29.4094 28.0965 29.3442 28.1184C29.279 28.1403 29.2192 28.176 29.169 28.223C29.164 28.221 29.097 28.278 28.374 29.154C28.3325 29.2098 28.2753 29.2519 28.2098 29.2751C28.1443 29.2982 28.0733 29.3013 28.006 29.284C27.9408 29.2666 27.877 29.2446 27.815 29.218C27.691 29.166 27.648 29.146 27.563 29.11C26.9889 28.8599 26.4574 28.5215 25.988 28.107C25.862 27.997 25.745 27.877 25.625 27.761C25.2316 27.3842 24.8887 26.958 24.605 26.493L24.546 26.398C24.5043 26.3338 24.47 26.265 24.444 26.193C24.406 26.046 24.505 25.928 24.505 25.928C24.505 25.928 24.748 25.662 24.861 25.518C24.971 25.378 25.064 25.242 25.124 25.145C25.242 24.955 25.279 24.76 25.217 24.609C24.937 23.925 24.6477 23.2447 24.349 22.568C24.29 22.434 24.115 22.338 23.956 22.319C23.902 22.3123 23.848 22.307 23.794 22.303C23.6597 22.2953 23.5251 22.2966 23.391 22.307L23.593 22.3Z" fill="#F8F8F8"/>
</svg>
